<svg width="51" height="54" viewBox="0 0 51 54" fill="none" xmlns="http://www.w3.org/2000/svg">
<path d="M18.0908 34.7577V42.4862C18.0908 44.83 18.5885 47.3335 20.4453 49.0046C22.2284 50.6094 24.8536 51 27.3533 51C28.5247 51 29.6784 50.9238 30.8129 50.7695C31.8802 50.6301 32.8164 50.4736 33.5203 50.2817L35.731 49.6787V47.3874V34.8529C38.0194 31.1504 39.9018 28.0288 41.3746 25.4929C43.0576 22.6723 44.36 20.3731 45.263 18.6159C46.1812 16.8705 46.8776 15.398 47.2708 14.2747L47.2782 14.2536L47.2853 14.2323C47.6341 13.1859 47.9157 12.0704 47.9157 11.0373C47.9157 8.63518 47.0629 6.39784 45.0237 4.90007C43.3406 3.58799 41.3379 3 39.1977 3C38.04 3 36.8631 3.14468 35.6739 3.41496C34.4688 3.68883 33.3303 4.08205 32.2742 4.61007L31.2597 5.11735L30.8346 6.16899C29.9699 8.30777 29.1953 10.2443 28.511 11.9779L28.5032 11.9978L28.4956 12.0177C27.9129 13.5578 27.3114 15.0568 26.6912 16.5147C26.2862 15.6836 25.8811 14.8627 25.4758 14.0522L23.1759 15.2022L25.4758 14.0522L23.9783 11.0571L23.5188 10.1381L23.4039 9.90836L23.3752 9.85092L23.368 9.83657L23.3662 9.83298L23.3658 9.83208L23.3657 9.83185L23.3656 9.8318L23.3656 9.83178L20.6823 11.1734L23.3656 9.83178C22.2719 7.64435 20.9108 5.73041 19.1239 4.57762C17.401 3.43732 15.3436 3 13.1945 3C11.2338 3 9.36574 3.45038 7.74369 4.50824L7.71792 4.52505L7.69249 4.54239C6.46243 5.38106 5.39755 6.36229 4.56796 7.51095L3.60675 8.84186L4.20953 10.3689C4.94289 12.2267 5.92569 14.3056 7.14088 16.5958L7.14691 16.6072L7.15305 16.6185C8.34693 18.8226 9.63082 21.1151 11.0044 23.4959L11.0151 23.5145L11.0261 23.533C12.4459 25.9145 13.8665 28.2289 15.2881 30.4759L15.2956 30.4877L15.3032 30.4995C16.2981 32.04 17.2274 33.4596 18.0908 34.7577Z" stroke="url(#paint0_linear_8_18)" stroke-width="6"/>
<defs>
<linearGradient id="paint0_linear_8_18" x1="-1.96272" y1="3.43597" x2="46.5948" y2="47.4554" gradientUnits="userSpaceOnUse">
<stop stop-color="#7303C3"/>
<stop offset="1" stop-color="#EC38BC"/>
</linearGradient>
</defs>
</svg>
